{
	"asset":{
		"generator":"Khronos glTF Blender I/O v4.4.55",
		"version":"2.0"
	},
	"extensionsUsed":[
		"KHR_lights_punctual"
	],
	"extensionsRequired":[
		"KHR_lights_punctual"
	],
	"extensions":{
		"KHR_lights_punctual":{
			"lights":[
				{
					"color":[
						1,
						1,
						1
					],
					"intensity":54351.41306588226,
					"type":"point",
					"name":"Light"
				}
			]
		}
	},
	"scene":0,
	"scenes":[
		{
			"extras":{
				"blosm":{
					"defaultLevels":[
						{
							"levels":4,
							"weight":10
						},
						{
							"levels":5,
							"weight":40
						},
						{
							"levels":6,
							"weight":10
						}
					]
				}
			},
			"name":"Scene",
			"nodes":[
				0,
				1,
				2
			]
		}
	],
	"nodes":[
		{
			"extensions":{
				"KHR_lights_punctual":{
					"light":0
				}
			},
			"name":"Light",
			"rotation":[
				-0.28416627645492554,
				0.7269423007965088,
				0.34203392267227173,
				0.5232754945755005
			],
			"translation":[
				4.076245307922363,
				5.903861999511719,
				-1.0054539442062378
			]
		},
		{
			"camera":0,
			"name":"Camera",
			"rotation":[
				-0.20997299253940582,
				0.3857799470424652,
				0.09062844514846802,
				0.8937962055206299
			],
			"translation":[
				7.358891487121582,
				4.958309173583984,
				6.925790786743164
			]
		},
		{
			"mesh":0,
			"name":"Arrow",
			"rotation":[
				0.7071068286895752,
				0,
				0,
				0.7071068286895752
			],
			"translation":[
				0.1148298978805542,
				2.3660881519317627,
				0.11398099362850189
			]
		}
	],
	"cameras":[
		{
			"name":"Camera",
			"perspective":{
				"aspectRatio":1.7777777777777777,
				"yfov":0.39959652046304894,
				"zfar":100,
				"znear":0.10000000149011612
			},
			"type":"perspective"
		}
	],
	"materials":[
		{
			"doubleSided":true,
			"emissiveFactor":[
				0.4955999523639676,
				0.5606999420404435,
				0
			],
			"name":"Material.002",
			"pbrMetallicRoughness":{
				"baseColorFactor":[
					0.7082118988037109,
					0.8006623387336731,
					0,
					1
				],
				"metallicFactor":0,
				"roughnessFactor":0.5
			}
		}
	],
	"meshes":[
		{
			"name":"Plane",
			"primitives":[
				{
					"attributes":{
						"POSITION":0,
						"NORMAL":1,
						"TEXCOORD_0":2
					},
					"indices":3,
					"material":0
				}
			]
		}
	],
	"accessors":[
		{
			"bufferView":0,
			"componentType":5126,
			"count":354,
			"max":[
				1.7524282932281494,
				0.11685825884342194,
				1.0552071332931519
			],
			"min":[
				-1.2560596466064453,
				-0.11744827032089233,
				-1.0534647703170776
			],
			"type":"VEC3"
		},
		{
			"bufferView":1,
			"componentType":5126,
			"count":354,
			"type":"VEC3"
		},
		{
			"bufferView":2,
			"componentType":5126,
			"count":354,
			"type":"VEC2"
		},
		{
			"bufferView":3,
			"componentType":5123,
			"count":2016,
			"type":"SCALAR"
		}
	],
	"bufferViews":[
		{
			"buffer":0,
			"byteLength":4248,
			"byteOffset":0,
			"target":34962
		},
		{
			"buffer":0,
			"byteLength":4248,
			"byteOffset":4248,
			"target":34962
		},
		{
			"buffer":0,
			"byteLength":2832,
			"byteOffset":8496,
			"target":34962
		},
		{
			"buffer":0,
			"byteLength":4032,
			"byteOffset":11328,
			"target":34963
		}
	],
	"buffers":[
		{
			"byteLength":15360,
			"uri":"arrow-b6f059ea5daf0b9bdde56717a942d4e8.bin"
		}
	]
}
