{
	"asset":{
		"generator":"Khronos glTF Blender I/O v4.4.55",
		"version":"2.0"
	},
	"scene":0,
	"scenes":[
		{
			"name":"Scene",
			"nodes":[
				0,
				1
			]
		}
	],
	"nodes":[
		{
			"camera":0,
			"name":"Camera",
			"rotation":[
				-0.20997299253940582,
				0.3857799470424652,
				0.09062844514846802,
				0.8937962055206299
			],
			"translation":[
				7.358891487121582,
				4.958309173583984,
				6.925790786743164
			]
		},
		{
			"mesh":0,
			"name":"Plane.001",
			"scale":[
				5.009030342102051,
				0.2504515051841736,
				5.009030342102051
			],
			"translation":[
				0,
				2.0423362255096436,
				5.441751480102539
			]
		}
	],
	"cameras":[
		{
			"name":"Camera",
			"perspective":{
				"aspectRatio":1.7777777777777777,
				"yfov":0.39959652046304894,
				"zfar":100,
				"znear":0.10000000149011612
			},
			"type":"perspective"
		}
	],
	"materials":[
		{
			"doubleSided":true,
			"name":"map_base_color",
			"pbrMetallicRoughness":{
				"baseColorFactor":[
					0.03427247703075409,
					0.4515862464904785,
					0.027639176696538925,
					1
				],
				"metallicFactor":0,
				"roughnessFactor":0.5
			}
		},
		{
			"doubleSided":true,
			"name":"map_middle_color",
			"pbrMetallicRoughness":{
				"baseColorFactor":[
					0.29119205474853516,
					0.1620086133480072,
					0.07738246023654938,
					1
				],
				"metallicFactor":0,
				"roughnessFactor":0.5
			}
		},
		{
			"doubleSided":true,
			"name":"map_top_color",
			"pbrMetallicRoughness":{
				"baseColorFactor":[
					0.2842298448085785,
					0.2842298448085785,
					0.2842298448085785,
					1
				],
				"metallicFactor":0,
				"roughnessFactor":0.5
			}
		}
	],
	"meshes":[
		{
			"name":"Plane.001",
			"primitives":[
				{
					"attributes":{
						"POSITION":0,
						"NORMAL":1,
						"TEXCOORD_0":2,
						"TANGENT":3
					},
					"indices":4,
					"material":0
				},
				{
					"attributes":{
						"POSITION":5,
						"NORMAL":6,
						"TEXCOORD_0":7,
						"TANGENT":8
					},
					"indices":9,
					"material":1
				},
				{
					"attributes":{
						"POSITION":10,
						"NORMAL":11,
						"TEXCOORD_0":12,
						"TANGENT":13
					},
					"indices":14,
					"material":2
				}
			]
		}
	],
	"accessors":[
		{
			"bufferView":0,
			"componentType":5126,
			"count":539,
			"max":[
				1,
				2.6419837474823,
				1
			],
			"min":[
				-1,
				-0.39780038595199585,
				-1
			],
			"type":"VEC3"
		},
		{
			"bufferView":1,
			"componentType":5126,
			"count":539,
			"type":"VEC3"
		},
		{
			"bufferView":2,
			"componentType":5126,
			"count":539,
			"type":"VEC2"
		},
		{
			"bufferView":3,
			"componentType":5126,
			"count":539,
			"type":"VEC4"
		},
		{
			"bufferView":4,
			"componentType":5123,
			"count":2850,
			"type":"SCALAR"
		},
		{
			"bufferView":5,
			"componentType":5126,
			"count":109,
			"max":[
				1,
				4.462505340576172,
				1
			],
			"min":[
				0.03999996930360794,
				0,
				-0.35199999809265137
			],
			"type":"VEC3"
		},
		{
			"bufferView":6,
			"componentType":5126,
			"count":109,
			"type":"VEC3"
		},
		{
			"bufferView":7,
			"componentType":5126,
			"count":109,
			"type":"VEC2"
		},
		{
			"bufferView":8,
			"componentType":5126,
			"count":109,
			"type":"VEC4"
		},
		{
			"bufferView":9,
			"componentType":5123,
			"count":336,
			"type":"SCALAR"
		},
		{
			"bufferView":10,
			"componentType":5126,
			"count":132,
			"max":[
				1,
				5.1854705810546875,
				1
			],
			"min":[
				0.19999998807907104,
				0,
				-0.2293914258480072
			],
			"type":"VEC3"
		},
		{
			"bufferView":11,
			"componentType":5126,
			"count":132,
			"type":"VEC3"
		},
		{
			"bufferView":12,
			"componentType":5126,
			"count":132,
			"type":"VEC2"
		},
		{
			"bufferView":13,
			"componentType":5126,
			"count":132,
			"type":"VEC4"
		},
		{
			"bufferView":14,
			"componentType":5123,
			"count":564,
			"type":"SCALAR"
		}
	],
	"bufferViews":[
		{
			"buffer":0,
			"byteLength":6468,
			"byteOffset":0,
			"target":34962
		},
		{
			"buffer":0,
			"byteLength":6468,
			"byteOffset":6468,
			"target":34962
		},
		{
			"buffer":0,
			"byteLength":4312,
			"byteOffset":12936,
			"target":34962
		},
		{
			"buffer":0,
			"byteLength":8624,
			"byteOffset":17248,
			"target":34962
		},
		{
			"buffer":0,
			"byteLength":5700,
			"byteOffset":25872,
			"target":34963
		},
		{
			"buffer":0,
			"byteLength":1308,
			"byteOffset":31572,
			"target":34962
		},
		{
			"buffer":0,
			"byteLength":1308,
			"byteOffset":32880,
			"target":34962
		},
		{
			"buffer":0,
			"byteLength":872,
			"byteOffset":34188,
			"target":34962
		},
		{
			"buffer":0,
			"byteLength":1744,
			"byteOffset":35060,
			"target":34962
		},
		{
			"buffer":0,
			"byteLength":672,
			"byteOffset":36804,
			"target":34963
		},
		{
			"buffer":0,
			"byteLength":1584,
			"byteOffset":37476,
			"target":34962
		},
		{
			"buffer":0,
			"byteLength":1584,
			"byteOffset":39060,
			"target":34962
		},
		{
			"buffer":0,
			"byteLength":1056,
			"byteOffset":40644,
			"target":34962
		},
		{
			"buffer":0,
			"byteLength":2112,
			"byteOffset":41700,
			"target":34962
		},
		{
			"buffer":0,
			"byteLength":1128,
			"byteOffset":43812,
			"target":34963
		}
	],
	"buffers":[
		{
			"byteLength":44940,
			"uri":"map-7ce124230146739ffa927cd7e9462aa9.bin"
		}
	]
}
