{
	"asset":{
		"generator":"Khronos glTF Blender I/O v4.4.55",
		"version":"2.0"
	},
	"extensionsUsed":[
		"KHR_lights_punctual",
		"KHR_materials_emissive_strength"
	],
	"extensionsRequired":[
		"KHR_lights_punctual"
	],
	"extensions":{
		"KHR_lights_punctual":{
			"lights":[
				{
					"color":[
						1,
						1,
						1
					],
					"intensity":3415,
					"type":"directional",
					"name":"Light"
				}
			]
		}
	},
	"scene":0,
	"scenes":[
		{
			"name":"Scene",
			"nodes":[
				0,
				1,
				2,
				3
			]
		}
	],
	"nodes":[
		{
			"extensions":{
				"KHR_lights_punctual":{
					"light":0
				}
			},
			"name":"Light",
			"rotation":[
				-0.31034544110298157,
				-0.4492242634296417,
				-0.1699417531490326,
				0.8203676342964172
			],
			"translation":[
				-2.946397304534912,
				5.903861999511719,
				-19.11902618408203
			]
		},
		{
			"name":"Camera",
			"rotation":[
				-0.01688157580792904,
				-0.03084740601480007,
				0.0008865909185260534,
				0.9993811845779419
			],
			"translation":[
				0.0397486686706543,
				0.6613016128540039,
				0.21657657623291016
			]
		},
		{
			"mesh":0,
			"name":"Sphere",
			"rotation":[
				0,
				-0.2602931559085846,
				0,
				0.9655296206474304
			],
			"scale":[
				2.571743965148926,
				2.5717437267303467,
				2.571743965148926
			],
			"translation":[
				2.6023619174957275,
				0.08888334780931473,
				-22.666343688964844
			]
		},
		{
			"mesh":1,
			"name":"Circle",
			"rotation":[
				0.129409521818161,
				0.017037086188793182,
				0.12940950691699982,
				0.9829629063606262
			],
			"scale":[
				4.1473307609558105,
				4.147330284118652,
				4.1473307609558105
			],
			"translation":[
				2.6023619174957275,
				0.08888334780931473,
				-22.666343688964844
			]
		}
	],
	"materials":[
		{
			"doubleSided":true,
			"name":"Material.002",
			"pbrMetallicRoughness":{
				"baseColorFactor":[
					0.09382288157939911,
					0.19653601944446564,
					0.8006867170333862,
					1
				],
				"metallicFactor":0,
				"roughnessFactor":0.5
			}
		},
		{
			"doubleSided":true,
			"emissiveFactor":[
				1,
				1,
				1
			],
			"extensions":{
				"KHR_materials_emissive_strength":{
					"emissiveStrength":2
				}
			},
			"name":"Material.003",
			"pbrMetallicRoughness":{
				"baseColorFactor":[
					0,
					0,
					0,
					1
				]
			}
		}
	],
	"meshes":[
		{
			"name":"Sphere",
			"primitives":[
				{
					"attributes":{
						"POSITION":0,
						"NORMAL":1,
						"TEXCOORD_0":2,
						"TANGENT":3
					},
					"indices":4,
					"material":0
				}
			]
		},
		{
			"name":"Circle",
			"primitives":[
				{
					"attributes":{
						"POSITION":5,
						"NORMAL":6,
						"TEXCOORD_0":7,
						"TANGENT":8
					},
					"indices":9,
					"material":1
				}
			]
		}
	],
	"accessors":[
		{
			"bufferView":0,
			"componentType":5126,
			"count":2496,
			"max":[
				0.9872310161590576,
				0.9975767135620117,
				0.9872307181358337
			],
			"min":[
				-0.9872305393218994,
				-0.9975767135620117,
				-0.9872310161590576
			],
			"type":"VEC3"
		},
		{
			"bufferView":1,
			"componentType":5126,
			"count":2496,
			"type":"VEC3"
		},
		{
			"bufferView":2,
			"componentType":5126,
			"count":2496,
			"type":"VEC2"
		},
		{
			"bufferView":3,
			"componentType":5126,
			"count":2496,
			"type":"VEC4"
		},
		{
			"bufferView":4,
			"componentType":5123,
			"count":11904,
			"type":"SCALAR"
		},
		{
			"bufferView":5,
			"componentType":5126,
			"count":12954,
			"max":[
				0.9935953617095947,
				0.010000002570450306,
				1.0000001192092896
			],
			"min":[
				-0.9935953617095947,
				-0.010000002570450306,
				-1.0000001192092896
			],
			"type":"VEC3"
		},
		{
			"bufferView":6,
			"componentType":5126,
			"count":12954,
			"type":"VEC3"
		},
		{
			"bufferView":7,
			"componentType":5126,
			"count":12954,
			"type":"VEC2"
		},
		{
			"bufferView":8,
			"componentType":5126,
			"count":12954,
			"type":"VEC4"
		},
		{
			"bufferView":9,
			"componentType":5123,
			"count":79872,
			"type":"SCALAR"
		}
	],
	"bufferViews":[
		{
			"buffer":0,
			"byteLength":29952,
			"byteOffset":0,
			"target":34962
		},
		{
			"buffer":0,
			"byteLength":29952,
			"byteOffset":29952,
			"target":34962
		},
		{
			"buffer":0,
			"byteLength":19968,
			"byteOffset":59904,
			"target":34962
		},
		{
			"buffer":0,
			"byteLength":39936,
			"byteOffset":79872,
			"target":34962
		},
		{
			"buffer":0,
			"byteLength":23808,
			"byteOffset":119808,
			"target":34963
		},
		{
			"buffer":0,
			"byteLength":155448,
			"byteOffset":143616,
			"target":34962
		},
		{
			"buffer":0,
			"byteLength":155448,
			"byteOffset":299064,
			"target":34962
		},
		{
			"buffer":0,
			"byteLength":103632,
			"byteOffset":454512,
			"target":34962
		},
		{
			"buffer":0,
			"byteLength":207264,
			"byteOffset":558144,
			"target":34962
		},
		{
			"buffer":0,
			"byteLength":159744,
			"byteOffset":765408,
			"target":34963
		}
	],
	"buffers":[
		{
			"byteLength":925152,
			"uri":"nightskysaturn-ed6553e358d244570dc6aac2ed046275.bin"
		}
	]
}
